<svg width="16" height="81" viewBox="0 0 16 81" fill="none" xmlns="http://www.w3.org/2000/svg">
<path d="M7.64645 80.3536C7.84171 80.5488 8.15829 80.5488 8.35356 80.3536L11.5355 77.1716C11.7308 76.9763 11.7308 76.6597 11.5355 76.4645C11.3403 76.2692 11.0237 76.2692 10.8284 76.4645L8 79.2929L5.17158 76.4645C4.97631 76.2692 4.65973 76.2692 4.46447 76.4645C4.26921 76.6597 4.26921 76.9763 4.46447 77.1716L7.64645 80.3536ZM7.5 2.18557e-08L7.5 1L8.5 1L8.5 -2.18557e-08L7.5 2.18557e-08ZM7.5 3L7.5 5L8.5 5L8.5 3L7.5 3ZM7.5 7L7.5 9L8.5 9L8.5 7L7.5 7ZM7.5 11L7.5 13L8.5 13L8.5 11L7.5 11ZM7.5 15L7.5 17L8.5 17L8.5 15L7.5 15ZM7.5 19L7.5 21L8.5 21L8.5 19L7.5 19ZM7.5 23L7.5 25L8.5 25L8.5 23L7.5 23ZM7.5 27L7.5 29L8.5 29L8.5 27L7.5 27ZM7.5 31L7.5 33L8.5 33L8.5 31L7.5 31ZM7.5 35L7.5 37L8.5 37L8.5 35L7.5 35ZM7.5 39L7.5 41L8.5 41L8.5 39L7.5 39ZM7.5 43L7.5 45L8.5 45L8.5 43L7.5 43ZM7.5 47L7.5 49L8.5 49L8.5 47L7.5 47ZM7.5 51L7.5 53L8.5 53L8.5 51L7.5 51ZM7.5 55L7.5 57L8.5 57L8.5 55L7.5 55ZM7.5 59L7.5 61L8.5 61L8.5 59L7.5 59ZM7.5 63L7.5 65L8.5 65L8.5 63L7.5 63ZM7.5 67L7.5 69L8.5 69L8.5 67L7.5 67ZM7.5 71L7.5 73L8.5 73L8.5 71L7.5 71ZM7.5 75L7.5 77L8.5 77L8.5 75L7.5 75ZM7.5 79L7.5 80L8.5 80L8.5 79L7.5 79ZM7.2929 80.7071C7.68342 81.0976 8.31659 81.0976 8.70711 80.7071L15.0711 74.3431C15.4616 73.9526 15.4616 73.3195 15.0711 72.9289C14.6805 72.5384 14.0474 72.5384 13.6569 72.9289L8 78.5858L2.34315 72.9289C1.95262 72.5384 1.31946 72.5384 0.928935 72.9289C0.538411 73.3195 0.538411 73.9526 0.928935 74.3431L7.2929 80.7071ZM7 4.37114e-08L7 1L9 1L9 -4.37114e-08L7 4.37114e-08ZM7 3L7 5L9 5L9 3L7 3ZM7 7L7 9L9 9L9 7L7 7ZM7 11L7 13L9 13L9 11L7 11ZM7 15L7 17L9 17L9 15L7 15ZM7 19L7 21L9 21L9 19L7 19ZM7 23L7 25L9 25L9 23L7 23ZM7 27L7 29L9 29L9 27L7 27ZM7 31L7 33L9 33L9 31L7 31ZM7 35L7 37L9 37L9 35L7 35ZM7 39L7 41L9 41L9 39L7 39ZM7 43L7 45L9 45L9 43L7 43ZM7 47L7 49L9 49L9 47L7 47ZM7 51L7 53L9 53L9 51L7 51ZM7 55L7 57L9 57L9 55L7 55ZM7 59L7 61L9 61L9 59L7 59ZM7 63L7 65L9 65L9 63L7 63ZM7 67L7 69L9 69L9 67L7 67ZM7 71L7 73L9 73L9 71L7 71ZM7 75L7 77L9 77L9 75L7 75ZM7 79L7 80L9 80L9 79L7 79Z" fill="#A1ABDA"/>
</svg>
